<?xml version="1.0" encoding="utf-8"?>
<!-- Generator: Adobe Illustrator 26.1.0, SVG Export Plug-In . SVG Version: 6.00 Build 0)  -->
<svg version="1.1" id="Layer_1" xmlns="http://www.w3.org/2000/svg" xmlns:xlink="http://www.w3.org/1999/xlink" x="0px" y="0px"
	 viewBox="0 0 511.4 231.5" style="enable-background:new 0 0 511.4 231.5;" xml:space="preserve">
<style type="text/css">
	.st0{fill:#FFFFFF;}
	.st1{fill-rule:evenodd;clip-rule:evenodd;fill:url(#SVGID_1_);}
	
		.st2{fill-rule:evenodd;clip-rule:evenodd;fill:url(#SVGID_00000116942037658422423360000011911887954093915264_);filter:url(#Adobe_OpacityMaskFilter);}
	.st3{mask:url(#id0_1_);fill-rule:evenodd;clip-rule:evenodd;fill:#E65F26;}
	
		.st4{fill-rule:evenodd;clip-rule:evenodd;fill:url(#SVGID_00000163781407582428759230000004659184828291748003_);filter:url(#Adobe_OpacityMaskFilter_00000093142413780310831810000001944967586801102501_);}
	.st5{mask:url(#id2_1_);fill-rule:evenodd;clip-rule:evenodd;fill:#E65F26;}
	
		.st6{fill-rule:evenodd;clip-rule:evenodd;fill:url(#SVGID_00000125574603637117020230000010123821293065784508_);filter:url(#Adobe_OpacityMaskFilter_00000004539486388978724170000008481162332291006096_);}
	.st7{mask:url(#id4_1_);fill-rule:evenodd;clip-rule:evenodd;fill:#E65F26;}
	.st8{fill-rule:evenodd;clip-rule:evenodd;fill:#FFFFFF;}
</style>
<g>
	<g>
		<path class="st0" d="M63.9,183c0,4.6-2.6,8.3-7.9,11c-4.8,2.4-10.7,3.7-17.8,3.7c-6.8,0-14.8-1-23.9-2.9l2.5-7.4
			c9.5,1.8,16.6,2.8,21.4,2.8c3.6,0,6.6-0.6,8.9-1.9c2.4-1.3,3.6-3,3.6-5.1c0-3.1-3.4-5.6-10.3-7.6c-3.8-1.1-7.6-2.2-11.5-3.3
			c-4.1-1.3-7.1-2.9-9.1-4.6c-2.5-2.1-3.8-4.8-3.8-8c0-4.1,2.4-7.5,7.2-10c4.6-2.4,10.4-3.7,17.6-3.7c6.2,0,13.5,0.9,21.8,2.8
			l-3.4,7.2c-7.7-1.6-13.8-2.5-18.4-2.5c-3.8,0-6.7,0.6-8.7,1.7c-2,1.1-3,2.6-3,4.3c0,2.3,1.9,4.2,5.6,5.6c0.8,0.3,4.3,1.3,10.3,2.9
			c5.8,1.5,10,3.2,12.8,4.9C61.8,175.4,63.9,178.8,63.9,183L63.9,183z"/>
		<path class="st0" d="M87.7,154.4c0,1.3-0.7,2.5-2.1,3.4c-1.4,1-3,1.4-5,1.4c-1.9,0-3.6-0.5-5-1.4c-1.4-1-2.1-2.1-2.1-3.4
			c0-1.3,0.7-2.5,2.1-3.4c1.4-0.9,3.1-1.4,4.9-1.4c1.9,0,3.6,0.5,5,1.4C87,151.9,87.7,153.1,87.7,154.4z M86.1,197.1h-11v-35.2h11
			V197.1z"/>
		<polygon class="st0" points="110.8,197.1 99.7,197.1 99.7,150.7 110.8,150.7 		"/>
		<polygon class="st0" points="165.6,161.9 148.7,197.1 135.5,197.1 119,161.9 130.2,161.9 142.2,189.2 154.3,161.9 		"/>
		<path class="st0" d="M210.7,181.9h-29.3v2.3c0,2.1,0.9,3.7,2.8,4.9c1.8,1.2,4.3,1.8,7.3,1.8c2.7,0,7.5-0.6,14.5-1.7l2.2,6.4
			c-6.4,1.3-12,1.9-16.7,1.9c-6.1,0-11.2-1.2-15.1-3.7c-4-2.5-5.9-5.7-5.9-9.7v-9.6c0-3.8,2-7,5.9-9.5c3.9-2.5,8.7-3.7,14.3-3.7
			c5.6,0,10.4,1.2,14.3,3.7c3.9,2.5,5.8,5.7,5.8,9.5L210.7,181.9L210.7,181.9z M199.7,175.7v-1.1c0-1.9-0.8-3.5-2.5-4.7
			c-1.7-1.2-3.8-1.8-6.5-1.8c-2.6,0-4.8,0.6-6.6,1.8c-1.8,1.2-2.7,2.8-2.7,4.7v1.1H199.7z"/>
		<path class="st0" d="M248.7,162l-2.1,6.6c-3-0.4-5-0.6-6.1-0.6c-2.7,0-4.9,0.6-6.6,1.8c-1.7,1.2-2.5,2.8-2.5,4.8v22.6h-11v-22.6
			c0-3.9,1.9-7.1,5.8-9.6c3.8-2.5,8.6-3.7,14.3-3.7C242.6,161.3,245.4,161.5,248.7,162L248.7,162z"/>
		<path class="st0" d="M317.9,152l-0.6,6.9h-18v39.3H288v-39.3h-18.6V152H317.9L317.9,152z M357,183.8c0,4.5-2.1,8.1-6.2,10.8
			c-4.1,2.7-9.3,4.1-15.7,4.1c-6.4,0-11.6-1.3-15.6-4c-4.1-2.7-6.1-6.3-6.1-10.9v-7.3c0-4.6,2.1-8.2,6.2-11c4-2.6,9.2-4,15.6-4
			s11.6,1.3,15.6,4c4.2,2.8,6.3,6.5,6.3,11L357,183.8L357,183.8z M345.7,183.6v-6.9c0-5.5-3.5-8.3-10.5-8.3c-7,0-10.4,2.8-10.4,8.3
			v6.9c0,5.5,3.5,8.3,10.4,8.3C342.2,191.9,345.7,189.2,345.7,183.6z M409.3,185.2c0,3.9-2,7.2-6.1,9.7c-4,2.6-8.9,3.8-14.6,3.8
			c-5.8,0-10.7-1.3-14.7-3.8c-4-2.6-6-5.8-6-9.7v-23h11.3v23c0,2,0.9,3.6,2.6,4.8c1.8,1.3,4,1.9,6.8,1.9c2.7,0,4.9-0.6,6.7-1.9
			c1.8-1.3,2.6-2.9,2.6-4.8v-23.1h11.3L409.3,185.2L409.3,185.2z M457.4,197.3c-5.4,1-10.8,1.5-16,1.5c-6.2,0-11.2-1.2-15-3.6
			c-4.1-2.6-6.2-6.1-6.2-10.5v-8.8c0-4.5,2.1-8,6.2-10.6c3.8-2.4,8.8-3.6,15-3.6c4.8,0,10.1,0.5,15.7,1.6l-2.3,6.6
			c-5-0.9-9.5-1.3-13.3-1.3c-6.6,0-9.9,2.4-9.9,7.3v8.8c0,4.9,3.3,7.3,9.9,7.3c3.6,0,8.2-0.4,13.6-1.3L457.4,197.3L457.4,197.3z
			 M508.8,198.1h-11.3v-22.6c0-4.7-2.9-7.1-8.8-7.1c-3.2,0-6.6,0.5-9.9,1.4v28.3h-11.3v-48.7h11.3v13.6c3.4-1,6.8-1.4,9.9-1.4
			c5.8,0,10.6,1.3,14.5,3.8c3.8,2.5,5.7,5.9,5.7,10.1V198.1L508.8,198.1z"/>
		<path class="st0" d="M40.7,216.5l-4.9,0l0.1,14.8l-4.2,0l-0.1-14.8l-4.8,0l0-2.8l13.9-0.1L40.7,216.5z M81.1,223.3l-7.2,0.1l0,5
			l8.5-0.1l0,2.7l-12.7,0.1l-0.2-17.6l12.7-0.1l0,2.8l-8.5,0.1l0,4.4l7.2-0.1L81.1,223.3L81.1,223.3z M124.9,225L124.9,225
			c0.1,2-0.5,3.5-1.6,4.5c-1.1,1-2.8,1.5-5.1,1.5c-2.2,0-4-0.5-5.4-1.6c-1.3-1.1-2-2.7-2-4.7l0-5.2c0-2,0.6-3.6,1.9-4.8
			c1.3-1.1,3-1.7,5.2-1.7c2.3,0,4,0.5,5.2,1.5c1.2,1,1.8,2.5,1.9,4.4l0,0.1l-4.1,0c0.1-1.1-0.1-2-0.6-2.5c-0.4-0.5-1.2-0.8-2.3-0.7
			c-0.9,0-1.7,0.3-2.2,0.9c-0.5,0.6-0.7,1.5-0.7,2.7l0,5.3c0,1.2,0.3,2.2,0.8,2.8c0.5,0.6,1.3,0.9,2.4,0.9c1,0,1.7-0.3,2.1-0.7
			c0.4-0.5,0.6-1.3,0.5-2.5L124.9,225L124.9,225z M169.5,230.2l-4.2,0l-0.1-7.3l-6.7,0.1l0.1,7.3l-4.2,0l-0.2-17.6l4.2,0l0.1,7.6
			l6.7-0.1l-0.1-7.6l4.2,0L169.5,230.2L169.5,230.2z M214.8,229.8l-4.2,0l-6.7-11.2l-0.1,0l0.1,11.2l-4.2,0l-0.2-17.6l4.2,0
			l6.7,11.2l0.1,0l-0.1-11.2l4.2,0L214.8,229.8L214.8,229.8z M259.4,223.1c0,2.1-0.7,3.7-2,4.8c-1.4,1.2-3.2,1.8-5.5,1.8
			c-2.3,0-4.1-0.5-5.5-1.7c-1.4-1.1-2.1-2.8-2.1-4.8l0-4.9c0-2.1,0.7-3.7,2-4.9c1.4-1.2,3.2-1.8,5.4-1.8c2.3,0,4.1,0.5,5.5,1.7
			c1.4,1.2,2.1,2.8,2.1,4.8L259.4,223.1L259.4,223.1z M255.1,218.2c0-1.3-0.3-2.2-0.9-2.8c-0.6-0.6-1.4-0.9-2.5-0.9
			c-1.1,0-1.9,0.3-2.5,1c-0.5,0.6-0.8,1.6-0.8,2.9l0,4.9c0,1.3,0.3,2.2,0.9,2.9c0.6,0.6,1.4,0.9,2.5,0.9c1.1,0,1.9-0.3,2.5-1
			c0.6-0.6,0.8-1.6,0.8-2.9L255.1,218.2L255.1,218.2z M293.2,226.4l7.9-0.1l0,2.7l-12.1,0.1l-0.2-17.6l4.2,0L293.2,226.4
			L293.2,226.4z M344.5,222.4c0,2.1-0.7,3.7-2,4.8c-1.4,1.2-3.2,1.8-5.5,1.8c-2.3,0-4.1-0.5-5.5-1.7c-1.4-1.1-2.1-2.8-2.1-4.8l0-4.9
			c0-2.1,0.7-3.7,2-4.9c1.4-1.2,3.2-1.8,5.4-1.8c2.3,0,4.1,0.5,5.5,1.7c1.4,1.2,2.1,2.8,2.1,4.8L344.5,222.4L344.5,222.4z
			 M340.3,217.5c0-1.3-0.3-2.2-0.9-2.8c-0.6-0.6-1.4-0.9-2.5-0.9c-1.1,0-1.9,0.3-2.5,1c-0.5,0.6-0.8,1.6-0.8,2.9l0,4.9
			c0,1.3,0.3,2.2,0.9,2.9c0.6,0.6,1.4,0.9,2.5,0.9c1.1,0,1.9-0.3,2.5-1c0.6-0.6,0.8-1.6,0.8-2.9L340.3,217.5L340.3,217.5z
			 M388.4,225.7c-0.6,0.8-1.4,1.4-2.6,2c-1.2,0.6-2.6,0.9-4.4,0.9c-2.3,0-4.2-0.5-5.6-1.6c-1.4-1.1-2.1-2.7-2.1-4.7l0-5.4
			c0-2,0.6-3.6,2-4.7c1.3-1.1,3.1-1.7,5.3-1.7c2.4,0,4.2,0.4,5.4,1.4c1.2,0.9,1.8,2.3,1.9,4.1l0,0.1l-4,0c0-1-0.3-1.7-0.8-2.2
			c-0.5-0.5-1.3-0.7-2.3-0.7c-1,0-1.8,0.3-2.4,0.9c-0.6,0.6-0.9,1.5-0.9,2.7l0,5.4c0,1.2,0.3,2.1,0.9,2.7c0.6,0.6,1.4,0.9,2.6,0.9
			c0.8,0,1.5-0.1,1.9-0.3c0.4-0.2,0.7-0.5,1-0.8l0-3.1l-2.8,0l0-2.4l7.1-0.1L388.4,225.7L388.4,225.7z M422.9,228l-4.2,0l-0.2-17.6
			l4.2,0L422.9,228z M464.6,219.9l-7.2,0.1l0,5l8.5-0.1l0,2.7l-12.7,0.1l-0.2-17.6l12.7-0.1l0,2.8l-8.5,0.1l0,4.4l7.2-0.1
			L464.6,219.9L464.6,219.9z M504.6,222.7c0-0.7-0.2-1.2-0.7-1.6c-0.4-0.4-1.2-0.8-2.3-1.2c-2.3-0.6-3.9-1.3-5.1-2.1
			c-1.1-0.8-1.7-1.9-1.7-3.4c0-1.4,0.6-2.6,1.9-3.5c1.3-0.9,3-1.4,5-1.4c2.1,0,3.7,0.5,5,1.5c1.3,1,1.9,2.3,1.9,3.8l0,0.1l-4.1,0
			c0-0.8-0.3-1.5-0.8-1.9c-0.5-0.5-1.2-0.7-2.1-0.7c-0.8,0-1.5,0.2-2,0.6c-0.5,0.4-0.7,0.9-0.7,1.6c0,0.6,0.3,1.1,0.8,1.4
			c0.5,0.4,1.4,0.8,2.7,1.2c2,0.5,3.6,1.2,4.6,2.1c1,0.9,1.6,2,1.6,3.5c0,1.5-0.6,2.7-1.8,3.6c-1.2,0.9-2.9,1.3-5,1.3
			c-2.1,0-3.8-0.5-5.4-1.4c-1.5-1-2.3-2.4-2.2-4.2l0-0.1l4.1,0c0,1.1,0.3,1.9,0.9,2.3c0.6,0.5,1.4,0.7,2.6,0.7c0.9,0,1.5-0.2,2-0.6
			C504.4,223.9,504.6,223.4,504.6,222.7L504.6,222.7z"/>
		<g>
			<path class="st0" d="M2.6,151.3c0-3.1,2.2-5.4,5.3-5.4s5.3,2.3,5.3,5.4c0,3.1-2.2,5.4-5.3,5.4S2.6,154.4,2.6,151.3z M3.4,151.3
				c0,2.7,1.8,4.7,4.5,4.7s4.6-2,4.6-4.7c0-2.7-1.8-4.7-4.6-4.7S3.4,148.6,3.4,151.3z M8.7,151.8l1.8,2.5l-1,0l-1.7-2.5H6.8v2.5H5.9
				v-5.9h2.4c1.2,0,1.9,0.6,1.9,1.7C10.3,151,9.7,151.7,8.7,151.8z M6.8,149.1v1.9h1.5c0.7,0,1.1-0.3,1.1-1c0-0.7-0.5-0.9-1.1-0.9
				H6.8z"/>
		</g>
	</g>
	<g>
		
			<linearGradient id="SVGID_1_" gradientUnits="userSpaceOnUse" x1="30986.207" y1="2005.0295" x2="26964.9551" y2="-881.6663" gradientTransform="matrix(2.834827e-02 0 0 -2.834827e-02 -559.8584 82.6196)">
			<stop  offset="0" style="stop-color:#E85222"/>
			<stop  offset="1" style="stop-color:#F1A707"/>
		</linearGradient>
		<path class="st1" d="M214.8,1.2h93.5c14.5,0,26.3,10.6,26.3,23.6v83.9c0,13-11.8,23.6-26.3,23.6h-93.5
			c-14.5,0-26.3-10.6-26.3-23.6V24.8C188.6,11.7,200.3,1.2,214.8,1.2z"/>
		<defs>
			<filter id="Adobe_OpacityMaskFilter" filterUnits="userSpaceOnUse" x="220.9" y="47.8" width="91.8" height="46.8">
				<feColorMatrix  type="matrix" values="1 0 0 0 0  0 1 0 0 0  0 0 1 0 0  0 0 0 1 0"/>
			</filter>
		</defs>
		<mask maskUnits="userSpaceOnUse" x="220.9" y="47.8" width="91.8" height="46.8" id="id0_1_">
			
				<linearGradient id="SVGID_00000061438569540571166100000014910075639469227190_" gradientUnits="userSpaceOnUse" x1="26882.5254" y1="-1053.5128" x2="29931.6035" y2="893.4537" gradientTransform="matrix(2.834827e-02 0 0 -2.834827e-02 -559.8584 82.6196)">
				<stop  offset="0" style="stop-color:#FFFFFF"/>
				<stop  offset="0.2392" style="stop-color:#FFFFFF;stop-opacity:0.502"/>
				<stop  offset="1" style="stop-color:#FFFFFF;stop-opacity:0"/>
			</linearGradient>
			
				<rect x="220.9" y="47.8" style="fill-rule:evenodd;clip-rule:evenodd;fill:url(#SVGID_00000061438569540571166100000014910075639469227190_);filter:url(#Adobe_OpacityMaskFilter);" width="91.8" height="46.8"/>
		</mask>
		<path class="st3" d="M312.8,47.8c0,0-23,5.2-67.2,23.5c0,0-28.8,12.3-24.1,20.8c0,0,4,9.2,34.9-8.2
			C256.3,84,291.5,64.6,312.8,47.8L312.8,47.8z"/>
		<defs>
			
				<filter id="Adobe_OpacityMaskFilter_00000128474400392785062280000010145531006827497344_" filterUnits="userSpaceOnUse" x="209.6" y="24" width="108" height="46.2">
				<feColorMatrix  type="matrix" values="1 0 0 0 0  0 1 0 0 0  0 0 1 0 0  0 0 0 1 0"/>
			</filter>
		</defs>
		<mask maskUnits="userSpaceOnUse" x="209.6" y="24" width="108" height="46.2" id="id2_1_">
			
				<linearGradient id="SVGID_00000005265125750731728840000005922766374409379471_" gradientUnits="userSpaceOnUse" x1="26273.9141" y1="-517.3569" x2="29524.2148" y2="1558.1022" gradientTransform="matrix(2.834827e-02 0 0 -2.834827e-02 -559.8584 82.6196)">
				<stop  offset="0" style="stop-color:#FFFFFF"/>
				<stop  offset="0.2392" style="stop-color:#FFFFFF;stop-opacity:0.502"/>
				<stop  offset="1" style="stop-color:#FFFFFF;stop-opacity:0"/>
			</linearGradient>
			
				<rect x="209.6" y="24" style="fill-rule:evenodd;clip-rule:evenodd;fill:url(#SVGID_00000005265125750731728840000005922766374409379471_);filter:url(#Adobe_OpacityMaskFilter_00000128474400392785062280000010145531006827497344_);" width="108" height="46.2"/>
		</mask>
		<path class="st5" d="M317.6,24c0,0-22.5,2-76.9,19.9c0,0-35.4,12.2-30.6,22.7c0,0,3.9,11.4,42.3-6.7
			C252.4,59.9,290.7,42.1,317.6,24L317.6,24z"/>
		<defs>
			
				<filter id="Adobe_OpacityMaskFilter_00000086670761838948897610000000213805402789501853_" filterUnits="userSpaceOnUse" x="231" y="75.5" width="76" height="42.5">
				<feColorMatrix  type="matrix" values="1 0 0 0 0  0 1 0 0 0  0 0 1 0 0  0 0 0 1 0"/>
			</filter>
		</defs>
		<mask maskUnits="userSpaceOnUse" x="231" y="75.5" width="76" height="42.5" id="id4_1_">
			
				<linearGradient id="SVGID_00000043423422465716113610000013655858845887653039_" gradientUnits="userSpaceOnUse" x1="27124.084" y1="-1848.78" x2="30374.3867" y2="226.679" gradientTransform="matrix(2.834827e-02 0 0 -2.834827e-02 -559.8584 82.6196)">
				<stop  offset="0" style="stop-color:#FFFFFF"/>
				<stop  offset="0.2392" style="stop-color:#FFFFFF;stop-opacity:0.502"/>
				<stop  offset="1" style="stop-color:#FFFFFF;stop-opacity:0"/>
			</linearGradient>
			
				<rect x="231" y="75.5" style="fill-rule:evenodd;clip-rule:evenodd;fill:url(#SVGID_00000043423422465716113610000013655858845887653039_);filter:url(#Adobe_OpacityMaskFilter_00000086670761838948897610000000213805402789501853_);" width="76" height="42.5"/>
		</mask>
		<path class="st7" d="M307,75.5c0,0-28.9,7.6-52.5,18.8c0,0-29.3,11.2-22.4,21.8c0,0,5.1,8.8,36.3-10.8
			C268.4,105.3,299,82.9,307,75.5L307,75.5z"/>
		<path class="st8" d="M310.7,44.3c0,0-23,5.2-67.2,23.5c0,0-28.8,12.3-24.1,20.8c0,0,4,9.2,34.9-8.2
			C254.3,80.5,289.5,61.1,310.7,44.3L310.7,44.3z"/>
		<path class="st8" d="M304.9,71.7c0,0-28.9,7.6-52.5,18.8c0,0-29.3,11.2-22.4,21.8c0,0,5.1,8.8,36.3-10.8
			C266.2,101.5,296.8,79.1,304.9,71.7z"/>
		<path class="st8" d="M316.2,19.8c0,0-26.8,4.1-78.8,21.6c0,0-33.9,11.9-29.2,22c0,0,3.8,10.9,40.5-6.6
			C248.8,56.7,290.6,37.2,316.2,19.8z"/>
	</g>
</g>
</svg>
